<?xml version="1.0" standalone="no"?>
<svg version="1.0" xmlns="http://www.w3.org/2000/svg"
     width="225.000000pt" height="225.000000pt" viewBox="0 0 225.000000 225.000000"
     preserveAspectRatio="xMidYMid meet">

    <g transform="translate(0.000000,225.000000) scale(0.100000,-0.100000)"
       fill="#000000" stroke="none">
        <path d="M955 2154 c-92 -14 -221 -52 -304 -90 -299 -140 -512 -419 -570 -748
-14 -76 -14 -272 -1 -354 15 -89 54 -202 106 -302 48 -94 171 -243 247 -300
26 -19 59 -45 74 -57 44 -36 205 -111 296 -137 135 -39 270 -50 402 -32 187
26 355 91 383 149 28 58 -14 119 -82 119 -17 0 -61 -14 -97 -30 -303 -137
-680 -61 -924 185 -106 108 -174 225 -215 376 -29 107 -30 299 -1 409 82 315
323 550 634 620 109 24 280 21 387 -8 259 -68 474 -258 573 -504 67 -170 75
-383 19 -556 -34 -106 -30 -144 19 -170 46 -23 93 -12 119 31 31 50 70 216 77
330 29 488 -302 934 -777 1045 -92 22 -291 35 -365 24z"/>
        <path d="M954 1786 c-200 -46 -362 -168 -450 -342 -58 -113 -69 -160 -69 -304
0 -101 4 -138 22 -195 83 -260 314 -439 589 -453 346 -17 632 218 684 563 38
248 -89 516 -308 649 -130 79 -329 114 -468 82z m505 -253 c0 -16 -15 -107
-32 -203 l-33 -175 44 -3 43 -3 -3 -37 c-3 -35 -5 -37 -50 -46 -51 -10 -50 -8
-64 -111 -4 -27 -11 -56 -16 -62 -6 -8 -32 -13 -61 -13 l-50 0 6 38 c3 20 9
58 12 83 l7 46 -74 -9 c-40 -5 -95 -12 -123 -16 -101 -15 -107 1 -36 109 63
96 172 220 295 337 103 97 136 113 135 65z m-455 -313 c3 -11 8 -28 11 -38 4
-15 -3 -21 -37 -31 -138 -42 -219 -134 -189 -214 18 -48 117 -89 172 -72 19 6
21 13 17 71 l-4 64 43 0 43 0 0 -94 0 -94 -27 -6 c-135 -26 -215 -13 -278 45
-127 117 -37 289 194 374 48 18 49 18 55 -5z"/>
        <path d="M1253 1306 c-64 -68 -157 -185 -152 -190 5 -4 149 13 167 19 6 2 12
17 12 32 1 15 9 67 19 116 10 48 17 87 16 87 -2 0 -29 -29 -62 -64z"/>
    </g>
</svg>
